<svg xmlns="http://www.w3.org/2000/svg" xmlns:xlink="http://www.w3.org/1999/xlink" width="586" zoomAndPan="magnify" viewBox="0 0 439.5 253.499997" height="338" preserveAspectRatio="xMidYMid meet" version="1.0"><defs><g/><clipPath id="bd974163ba"><rect x="0" width="336" y="0" height="67"/></clipPath><clipPath id="37c4df6073"><path d="M 6 0.242188 L 100 0.242188 L 100 128 L 6 128 Z M 6 0.242188 " clip-rule="nonzero"/></clipPath><clipPath id="360d465897"><rect x="0" width="339" y="0" height="172"/></clipPath></defs><g transform="matrix(1, 0, 0, 1, 53, 164)"><g clip-path="url(#bd974163ba)"><g fill="#3a4f44" fill-opacity="1"><g transform="translate(1.068193, 51.414273)"><g><path d="M 28.4375 0 L 21.171875 -10.484375 L 13.171875 -10.484375 L 13.171875 0 L 4.46875 0 L 4.46875 -37.625 L 20.75 -37.625 C 24.082031 -37.625 26.972656 -37.066406 29.421875 -35.953125 C 31.878906 -34.847656 33.769531 -33.273438 35.09375 -31.234375 C 36.425781 -29.191406 37.09375 -26.769531 37.09375 -23.96875 C 37.09375 -21.175781 36.421875 -18.765625 35.078125 -16.734375 C 33.734375 -14.710938 31.820312 -13.164062 29.34375 -12.09375 L 37.78125 0 Z M 28.265625 -23.96875 C 28.265625 -26.082031 27.582031 -27.703125 26.21875 -28.828125 C 24.863281 -29.960938 22.878906 -30.53125 20.265625 -30.53125 L 13.171875 -30.53125 L 13.171875 -17.421875 L 20.265625 -17.421875 C 22.878906 -17.421875 24.863281 -17.992188 26.21875 -19.140625 C 27.582031 -20.285156 28.265625 -21.894531 28.265625 -23.96875 Z M 28.265625 -23.96875 "/></g></g></g><g fill="#3a4f44" fill-opacity="1"><g transform="translate(41.487497, 51.414273)"><g><path d="M 32.203125 -14.34375 C 32.203125 -14.238281 32.144531 -13.488281 32.03125 -12.09375 L 10.15625 -12.09375 C 10.550781 -10.300781 11.484375 -8.882812 12.953125 -7.84375 C 14.421875 -6.800781 16.25 -6.28125 18.4375 -6.28125 C 19.9375 -6.28125 21.269531 -6.503906 22.4375 -6.953125 C 23.601562 -7.398438 24.6875 -8.109375 25.6875 -9.078125 L 30.15625 -4.25 C 27.425781 -1.125 23.445312 0.4375 18.21875 0.4375 C 14.957031 0.4375 12.070312 -0.195312 9.5625 -1.46875 C 7.0625 -2.75 5.128906 -4.515625 3.765625 -6.765625 C 2.398438 -9.023438 1.71875 -11.585938 1.71875 -14.453125 C 1.71875 -17.285156 2.390625 -19.835938 3.734375 -22.109375 C 5.078125 -24.390625 6.921875 -26.164062 9.265625 -27.4375 C 11.617188 -28.707031 14.242188 -29.34375 17.140625 -29.34375 C 19.972656 -29.34375 22.535156 -28.734375 24.828125 -27.515625 C 27.117188 -26.296875 28.921875 -24.546875 30.234375 -22.265625 C 31.546875 -19.992188 32.203125 -17.351562 32.203125 -14.34375 Z M 17.203125 -23 C 15.296875 -23 13.695312 -22.460938 12.40625 -21.390625 C 11.125 -20.316406 10.335938 -18.847656 10.046875 -16.984375 L 24.296875 -16.984375 C 24.003906 -18.804688 23.210938 -20.265625 21.921875 -21.359375 C 20.640625 -22.453125 19.066406 -23 17.203125 -23 Z M 17.203125 -23 "/></g></g></g><g fill="#3a4f44" fill-opacity="1"><g transform="translate(76.316942, 51.414273)"><g><path d="M 13.59375 0.4375 C 11.195312 0.4375 8.851562 0.140625 6.5625 -0.453125 C 4.269531 -1.046875 2.441406 -1.789062 1.078125 -2.6875 L 3.875 -8.703125 C 5.164062 -7.878906 6.722656 -7.207031 8.546875 -6.6875 C 10.367188 -6.164062 12.160156 -5.90625 13.921875 -5.90625 C 17.472656 -5.90625 19.25 -6.785156 19.25 -8.546875 C 19.25 -9.367188 18.765625 -9.957031 17.796875 -10.3125 C 16.828125 -10.675781 15.335938 -10.984375 13.328125 -11.234375 C 10.960938 -11.585938 9.007812 -12 7.46875 -12.46875 C 5.925781 -12.9375 4.59375 -13.757812 3.46875 -14.9375 C 2.34375 -16.125 1.78125 -17.8125 1.78125 -20 C 1.78125 -21.820312 2.304688 -23.441406 3.359375 -24.859375 C 4.410156 -26.273438 5.945312 -27.375 7.96875 -28.15625 C 10 -28.945312 12.394531 -29.34375 15.15625 -29.34375 C 17.195312 -29.34375 19.226562 -29.117188 21.25 -28.671875 C 23.28125 -28.222656 24.957031 -27.609375 26.28125 -26.828125 L 23.484375 -20.859375 C 20.941406 -22.285156 18.164062 -23 15.15625 -23 C 13.363281 -23 12.019531 -22.75 11.125 -22.25 C 10.226562 -21.75 9.78125 -21.101562 9.78125 -20.3125 C 9.78125 -19.414062 10.265625 -18.789062 11.234375 -18.4375 C 12.203125 -18.082031 13.742188 -17.742188 15.859375 -17.421875 C 18.222656 -17.023438 20.15625 -16.601562 21.65625 -16.15625 C 23.164062 -15.707031 24.472656 -14.890625 25.578125 -13.703125 C 26.691406 -12.523438 27.25 -10.878906 27.25 -8.765625 C 27.25 -6.972656 26.710938 -5.375 25.640625 -3.96875 C 24.566406 -2.570312 23 -1.488281 20.9375 -0.71875 C 18.875 0.0507812 16.425781 0.4375 13.59375 0.4375 Z M 13.59375 0.4375 "/></g></g></g><g fill="#3a4f44" fill-opacity="1"><g transform="translate(105.771528, 51.414273)"><g><path d="M 3.875 -28.921875 L 12.25 -28.921875 L 12.25 0 L 3.875 0 Z M 8.0625 -32.953125 C 6.519531 -32.953125 5.265625 -33.398438 4.296875 -34.296875 C 3.328125 -35.191406 2.84375 -36.300781 2.84375 -37.625 C 2.84375 -38.945312 3.328125 -40.054688 4.296875 -40.953125 C 5.265625 -41.847656 6.519531 -42.296875 8.0625 -42.296875 C 9.601562 -42.296875 10.859375 -41.863281 11.828125 -41 C 12.796875 -40.144531 13.28125 -39.070312 13.28125 -37.78125 C 13.28125 -36.382812 12.796875 -35.226562 11.828125 -34.3125 C 10.859375 -33.40625 9.601562 -32.953125 8.0625 -32.953125 Z M 8.0625 -32.953125 "/></g></g></g><g fill="#3a4f44" fill-opacity="1"><g transform="translate(122.863934, 51.414273)"><g><path d="M 33.328125 -39.875 L 33.328125 0 L 25.3125 0 L 25.3125 -3.328125 C 23.238281 -0.816406 20.226562 0.4375 16.28125 0.4375 C 13.5625 0.4375 11.097656 -0.171875 8.890625 -1.390625 C 6.691406 -2.609375 4.960938 -4.347656 3.703125 -6.609375 C 2.453125 -8.867188 1.828125 -11.484375 1.828125 -14.453125 C 1.828125 -17.429688 2.453125 -20.046875 3.703125 -22.296875 C 4.960938 -24.554688 6.691406 -26.296875 8.890625 -27.515625 C 11.097656 -28.734375 13.5625 -29.34375 16.28125 -29.34375 C 19.976562 -29.34375 22.863281 -28.179688 24.9375 -25.859375 L 24.9375 -39.875 Z M 17.734375 -6.453125 C 19.847656 -6.453125 21.601562 -7.175781 23 -8.625 C 24.394531 -10.070312 25.09375 -12.015625 25.09375 -14.453125 C 25.09375 -16.890625 24.394531 -18.832031 23 -20.28125 C 21.601562 -21.738281 19.847656 -22.46875 17.734375 -22.46875 C 15.585938 -22.46875 13.8125 -21.738281 12.40625 -20.28125 C 11.007812 -18.832031 10.3125 -16.890625 10.3125 -14.453125 C 10.3125 -12.015625 11.007812 -10.070312 12.40625 -8.625 C 13.8125 -7.175781 15.585938 -6.453125 17.734375 -6.453125 Z M 17.734375 -6.453125 "/></g></g></g><g fill="#3a4f44" fill-opacity="1"><g transform="translate(160.97205, 51.414273)"><g><path d="M 32.203125 -14.34375 C 32.203125 -14.238281 32.144531 -13.488281 32.03125 -12.09375 L 10.15625 -12.09375 C 10.550781 -10.300781 11.484375 -8.882812 12.953125 -7.84375 C 14.421875 -6.800781 16.25 -6.28125 18.4375 -6.28125 C 19.9375 -6.28125 21.269531 -6.503906 22.4375 -6.953125 C 23.601562 -7.398438 24.6875 -8.109375 25.6875 -9.078125 L 30.15625 -4.25 C 27.425781 -1.125 23.445312 0.4375 18.21875 0.4375 C 14.957031 0.4375 12.070312 -0.195312 9.5625 -1.46875 C 7.0625 -2.75 5.128906 -4.515625 3.765625 -6.765625 C 2.398438 -9.023438 1.71875 -11.585938 1.71875 -14.453125 C 1.71875 -17.285156 2.390625 -19.835938 3.734375 -22.109375 C 5.078125 -24.390625 6.921875 -26.164062 9.265625 -27.4375 C 11.617188 -28.707031 14.242188 -29.34375 17.140625 -29.34375 C 19.972656 -29.34375 22.535156 -28.734375 24.828125 -27.515625 C 27.117188 -26.296875 28.921875 -24.546875 30.234375 -22.265625 C 31.546875 -19.992188 32.203125 -17.351562 32.203125 -14.34375 Z M 17.203125 -23 C 15.296875 -23 13.695312 -22.460938 12.40625 -21.390625 C 11.125 -20.316406 10.335938 -18.847656 10.046875 -16.984375 L 24.296875 -16.984375 C 24.003906 -18.804688 23.210938 -20.265625 21.921875 -21.359375 C 20.640625 -22.453125 19.066406 -23 17.203125 -23 Z M 17.203125 -23 "/></g></g></g><g fill="#3a4f44" fill-opacity="1"><g transform="translate(195.801495, 51.414273)"><g><path d="M 21.453125 -29.34375 C 25.035156 -29.34375 27.925781 -28.265625 30.125 -26.109375 C 32.332031 -23.960938 33.4375 -20.78125 33.4375 -16.5625 L 33.4375 0 L 25.046875 0 L 25.046875 -15.265625 C 25.046875 -17.554688 24.539062 -19.265625 23.53125 -20.390625 C 22.53125 -21.523438 21.082031 -22.09375 19.1875 -22.09375 C 17.070312 -22.09375 15.382812 -21.4375 14.125 -20.125 C 12.875 -18.820312 12.25 -16.878906 12.25 -14.296875 L 12.25 0 L 3.875 0 L 3.875 -28.921875 L 11.875 -28.921875 L 11.875 -25.53125 C 12.988281 -26.75 14.367188 -27.6875 16.015625 -28.34375 C 17.660156 -29.007812 19.472656 -29.34375 21.453125 -29.34375 Z M 21.453125 -29.34375 "/></g></g></g><g fill="#3a4f44" fill-opacity="1"><g transform="translate(233.85587, 51.414273)"><g><path d="M 17.84375 0.4375 C 14.757812 0.4375 11.988281 -0.195312 9.53125 -1.46875 C 7.082031 -2.75 5.164062 -4.515625 3.78125 -6.765625 C 2.40625 -9.023438 1.71875 -11.585938 1.71875 -14.453125 C 1.71875 -17.328125 2.40625 -19.890625 3.78125 -22.140625 C 5.164062 -24.398438 7.082031 -26.164062 9.53125 -27.4375 C 11.988281 -28.707031 14.757812 -29.34375 17.84375 -29.34375 C 20.882812 -29.34375 23.539062 -28.707031 25.8125 -27.4375 C 28.09375 -26.164062 29.753906 -24.347656 30.796875 -21.984375 L 24.296875 -18.484375 C 22.785156 -21.140625 20.617188 -22.46875 17.796875 -22.46875 C 15.609375 -22.46875 13.796875 -21.75 12.359375 -20.3125 C 10.929688 -18.882812 10.21875 -16.929688 10.21875 -14.453125 C 10.21875 -11.984375 10.929688 -10.03125 12.359375 -8.59375 C 13.796875 -7.164062 15.609375 -6.453125 17.796875 -6.453125 C 20.660156 -6.453125 22.828125 -7.773438 24.296875 -10.421875 L 30.796875 -6.875 C 29.753906 -4.582031 28.09375 -2.789062 25.8125 -1.5 C 23.539062 -0.207031 20.882812 0.4375 17.84375 0.4375 Z M 17.84375 0.4375 "/></g></g></g><g fill="#3a4f44" fill-opacity="1"><g transform="translate(266.535367, 51.414273)"><g><path d="M 3.875 -28.921875 L 12.25 -28.921875 L 12.25 0 L 3.875 0 Z M 8.0625 -32.953125 C 6.519531 -32.953125 5.265625 -33.398438 4.296875 -34.296875 C 3.328125 -35.191406 2.84375 -36.300781 2.84375 -37.625 C 2.84375 -38.945312 3.328125 -40.054688 4.296875 -40.953125 C 5.265625 -41.847656 6.519531 -42.296875 8.0625 -42.296875 C 9.601562 -42.296875 10.859375 -41.863281 11.828125 -41 C 12.796875 -40.144531 13.28125 -39.070312 13.28125 -37.78125 C 13.28125 -36.382812 12.796875 -35.226562 11.828125 -34.3125 C 10.859375 -33.40625 9.601562 -32.953125 8.0625 -32.953125 Z M 8.0625 -32.953125 "/></g></g></g><g fill="#3a4f44" fill-opacity="1"><g transform="translate(283.627773, 51.414273)"><g><path d="M 15.53125 -29.34375 C 20.007812 -29.34375 23.445312 -28.273438 25.84375 -26.140625 C 28.25 -24.015625 29.453125 -20.800781 29.453125 -16.5 L 29.453125 0 L 21.609375 0 L 21.609375 -3.59375 C 20.035156 -0.90625 17.097656 0.4375 12.796875 0.4375 C 10.566406 0.4375 8.632812 0.0625 7 -0.6875 C 5.375 -1.445312 4.128906 -2.488281 3.265625 -3.8125 C 2.410156 -5.144531 1.984375 -6.648438 1.984375 -8.328125 C 1.984375 -11.015625 2.992188 -13.128906 5.015625 -14.671875 C 7.046875 -16.210938 10.175781 -16.984375 14.40625 -16.984375 L 21.0625 -16.984375 C 21.0625 -18.804688 20.503906 -20.210938 19.390625 -21.203125 C 18.285156 -22.191406 16.625 -22.6875 14.40625 -22.6875 C 12.863281 -22.6875 11.347656 -22.441406 9.859375 -21.953125 C 8.367188 -21.472656 7.109375 -20.820312 6.078125 -20 L 3.0625 -25.859375 C 4.632812 -26.960938 6.523438 -27.816406 8.734375 -28.421875 C 10.941406 -29.035156 13.207031 -29.34375 15.53125 -29.34375 Z M 14.890625 -5.21875 C 16.316406 -5.21875 17.585938 -5.546875 18.703125 -6.203125 C 19.816406 -6.867188 20.601562 -7.847656 21.0625 -9.140625 L 21.0625 -12.09375 L 15.3125 -12.09375 C 11.875 -12.09375 10.15625 -10.960938 10.15625 -8.703125 C 10.15625 -7.628906 10.578125 -6.78125 11.421875 -6.15625 C 12.265625 -5.53125 13.421875 -5.21875 14.890625 -5.21875 Z M 14.890625 -5.21875 "/></g></g></g><g fill="#3a4f44" fill-opacity="1"><g transform="translate(317.704735, 51.414273)"><g><path d="M 3.875 -39.875 L 12.25 -39.875 L 12.25 0 L 3.875 0 Z M 3.875 -39.875 "/></g></g></g></g></g><g transform="matrix(1, 0, 0, 1, 50, 40)"><g clip-path="url(#360d465897)"><g clip-path="url(#37c4df6073)"><g fill="#3a4f44" fill-opacity="1"><g transform="translate(0.390146, 127.866725)"><g><path d="M 6.359375 -127.09375 L 72.3125 -127.09375 C 75.53125 -127.09375 78.601562 -126.644531 81.53125 -125.75 C 84.457031 -124.863281 86.828125 -123.40625 88.640625 -121.375 C 90.460938 -119.34375 91.375 -116.585938 91.375 -113.109375 C 91.375 -108.878906 90.269531 -105.320312 88.0625 -102.4375 C 85.863281 -99.550781 83.050781 -97.132812 79.625 -95.1875 C 76.195312 -93.238281 72.53125 -91.628906 68.625 -90.359375 C 64.726562 -89.085938 61.0625 -87.960938 57.625 -86.984375 C 54.195312 -86.015625 51.378906 -85.039062 49.171875 -84.0625 C 46.972656 -83.09375 45.875 -81.972656 45.875 -80.703125 C 45.875 -78.671875 46.828125 -76.976562 48.734375 -75.625 C 50.640625 -74.269531 53.179688 -73.039062 56.359375 -71.9375 C 59.535156 -70.832031 63.007812 -69.664062 66.78125 -68.4375 C 70.550781 -67.207031 74.320312 -65.679688 78.09375 -63.859375 C 81.863281 -62.035156 85.335938 -59.75 88.515625 -57 C 91.691406 -54.25 94.234375 -50.796875 96.140625 -46.640625 C 98.046875 -42.492188 99 -37.453125 99 -31.515625 C 99 -26.941406 98.046875 -22.726562 96.140625 -18.875 C 94.234375 -15.019531 91.648438 -11.691406 88.390625 -8.890625 C 85.128906 -6.097656 81.398438 -3.914062 77.203125 -2.34375 C 73.015625 -0.78125 68.632812 0 64.0625 0 L 6.359375 0 Z M 24.78125 -17.796875 L 71.296875 -17.796875 C 76.210938 -17.796875 80.617188 -18.257812 84.515625 -19.1875 C 88.410156 -20.125 91.476562 -21.691406 93.71875 -23.890625 C 95.96875 -26.097656 97.09375 -29.019531 97.09375 -32.65625 C 97.09375 -36.21875 95.925781 -39.097656 93.59375 -41.296875 C 91.269531 -43.503906 88.203125 -45.242188 84.390625 -46.515625 C 80.578125 -47.785156 76.378906 -48.863281 71.796875 -49.75 C 67.222656 -50.644531 62.628906 -51.578125 58.015625 -52.546875 C 53.398438 -53.523438 49.1875 -54.734375 45.375 -56.171875 C 41.5625 -57.617188 38.488281 -59.523438 36.15625 -61.890625 C 33.820312 -64.265625 32.65625 -67.398438 32.65625 -71.296875 C 32.65625 -74.003906 33.609375 -76.269531 35.515625 -78.09375 C 37.421875 -79.914062 39.898438 -81.523438 42.953125 -82.921875 C 46.003906 -84.328125 49.203125 -85.75 52.546875 -87.1875 C 55.898438 -88.625 59.097656 -90.316406 62.140625 -92.265625 C 65.191406 -94.210938 67.671875 -96.671875 69.578125 -99.640625 C 71.484375 -102.609375 72.4375 -106.296875 72.4375 -110.703125 C 72.4375 -114.679688 71.3125 -117.707031 69.0625 -119.78125 C 66.820312 -121.863281 63.773438 -123.285156 59.921875 -124.046875 C 56.066406 -124.804688 51.769531 -125.1875 47.03125 -125.1875 L 24.78125 -125.1875 Z M 24.78125 -17.796875 "/></g></g></g></g><g fill="#3a4f44" fill-opacity="1"><g transform="translate(101.931876, 127.866725)"><g><path d="M 42.1875 1.265625 C 35.582031 1.265625 29.566406 -0.34375 24.140625 -3.5625 C 18.722656 -6.78125 14.40625 -11.671875 11.1875 -18.234375 C 7.96875 -24.804688 6.359375 -33.132812 6.359375 -43.21875 C 6.359375 -53.300781 7.925781 -61.625 11.0625 -68.1875 C 14.195312 -74.75 18.453125 -79.640625 23.828125 -82.859375 C 29.210938 -86.078125 35.332031 -87.6875 42.1875 -87.6875 C 48.800781 -87.6875 54.816406 -86.078125 60.234375 -82.859375 C 65.660156 -79.640625 70.003906 -74.75 73.265625 -68.1875 C 76.523438 -61.625 78.15625 -53.300781 78.15625 -43.21875 C 78.15625 -33.132812 76.546875 -24.804688 73.328125 -18.234375 C 70.109375 -11.671875 65.785156 -6.78125 60.359375 -3.5625 C 54.941406 -0.34375 48.882812 1.265625 42.1875 1.265625 Z M 32.53125 -84.515625 C 29.144531 -83.671875 26.5 -81.046875 24.59375 -76.640625 C 22.6875 -72.234375 21.625 -66.703125 21.40625 -60.046875 C 21.195312 -53.398438 21.984375 -46.265625 23.765625 -38.640625 C 25.546875 -31.097656 28.023438 -24.398438 31.203125 -18.546875 C 34.378906 -12.703125 37.8125 -8.273438 41.5 -5.265625 C 45.1875 -2.265625 48.722656 -1.1875 52.109375 -2.03125 C 55.578125 -2.875 58.265625 -5.5 60.171875 -9.90625 C 62.078125 -14.3125 63.132812 -19.835938 63.34375 -26.484375 C 63.5625 -33.140625 62.78125 -40.238281 61 -47.78125 C 59.644531 -53.457031 57.90625 -58.664062 55.78125 -63.40625 C 53.664062 -68.15625 51.296875 -72.222656 48.671875 -75.609375 C 46.046875 -79.003906 43.332031 -81.503906 40.53125 -83.109375 C 37.738281 -84.722656 35.070312 -85.191406 32.53125 -84.515625 Z M 32.53125 -84.515625 "/></g></g></g><g fill="#3a4f44" fill-opacity="1"><g transform="translate(186.444071, 127.866725)"><g><path d="M 0 -78.546875 C 3.132812 -78.960938 6.394531 -79.632812 9.78125 -80.5625 C 13.175781 -81.5 16.414062 -82.601562 19.5 -83.875 C 22.59375 -85.144531 25.242188 -86.414062 27.453125 -87.6875 L 27.453125 -60.375 C 28.128906 -63.332031 29.164062 -66.398438 30.5625 -69.578125 C 31.957031 -72.753906 33.78125 -75.71875 36.03125 -78.46875 C 38.28125 -81.226562 40.96875 -83.453125 44.09375 -85.140625 C 47.226562 -86.835938 50.875 -87.6875 55.03125 -87.6875 C 60.195312 -87.6875 64.519531 -86.628906 68 -84.515625 L 61.265625 -67.875 C 59.054688 -68.96875 56.765625 -69.914062 54.390625 -70.71875 C 52.023438 -71.53125 49.398438 -71.9375 46.515625 -71.9375 C 43.210938 -71.9375 40.117188 -71.066406 37.234375 -69.328125 C 34.359375 -67.585938 32.007812 -65.085938 30.1875 -61.828125 C 28.363281 -58.566406 27.453125 -54.648438 27.453125 -50.078125 L 27.453125 0 L 9.03125 0 L 9.03125 -69.640625 C 9.03125 -73.117188 8.304688 -75.363281 6.859375 -76.375 C 5.421875 -77.394531 3.132812 -77.90625 0 -77.90625 Z M 0 -78.546875 "/></g></g></g><g fill="#3a4f44" fill-opacity="1"><g transform="translate(251.892843, 127.866725)"><g><path d="M 3.8125 -17.03125 C 3.8125 -21.007812 4.742188 -24.800781 6.609375 -28.40625 C 8.472656 -32.007812 10.992188 -35.421875 14.171875 -38.640625 C 17.347656 -41.859375 20.925781 -44.84375 24.90625 -47.59375 C 28.894531 -50.351562 32.960938 -52.875 37.109375 -55.15625 C 32.960938 -56.9375 28.789062 -58.375 24.59375 -59.46875 C 20.394531 -60.570312 16.535156 -61.421875 13.015625 -62.015625 C 9.503906 -62.609375 6.648438 -62.945312 4.453125 -63.03125 C 5.722656 -68.375 8.175781 -72.863281 11.8125 -76.5 C 15.457031 -80.144531 19.695312 -82.921875 24.53125 -84.828125 C 29.363281 -86.734375 34.191406 -87.6875 39.015625 -87.6875 C 45.367188 -87.6875 50.390625 -86.753906 54.078125 -84.890625 C 57.765625 -83.035156 60.625 -80.472656 62.65625 -77.203125 C 64.6875 -73.941406 66.253906 -70.253906 67.359375 -66.140625 C 68.460938 -62.035156 69.566406 -57.695312 70.671875 -53.125 C 72.191406 -47.101562 73.566406 -41.378906 74.796875 -35.953125 C 76.023438 -30.535156 77.335938 -24.96875 78.734375 -19.25 C 80.128906 -13.53125 81.675781 -7.113281 83.375 0 L 64.6875 0 L 64.6875 -26.9375 C 64.6875 -24.0625 63.898438 -20.992188 62.328125 -17.734375 C 60.765625 -14.472656 58.457031 -11.398438 55.40625 -8.515625 C 52.363281 -5.628906 48.570312 -3.273438 44.03125 -1.453125 C 39.5 0.359375 34.3125 1.265625 28.46875 1.265625 C 24.488281 1.265625 20.613281 0.566406 16.84375 -0.828125 C 13.070312 -2.222656 9.957031 -4.296875 7.5 -7.046875 C 5.039062 -9.804688 3.8125 -13.132812 3.8125 -17.03125 Z M 62.78125 -26.9375 C 62.78125 -30.925781 61.867188 -34.507812 60.046875 -37.6875 C 58.222656 -40.863281 55.765625 -43.722656 52.671875 -46.265625 C 49.585938 -48.804688 46.140625 -51.007812 42.328125 -52.875 C 38.597656 -50.070312 35.164062 -46.929688 32.03125 -43.453125 C 28.894531 -39.984375 26.394531 -36.28125 24.53125 -32.34375 C 22.664062 -28.40625 21.734375 -24.234375 21.734375 -19.828125 C 21.734375 -16.691406 22.554688 -13.9375 24.203125 -11.5625 C 25.859375 -9.1875 28.101562 -7.300781 30.9375 -5.90625 C 33.78125 -4.507812 36.941406 -3.8125 40.421875 -3.8125 C 43.460938 -3.8125 46.335938 -4.613281 49.046875 -6.21875 C 51.765625 -7.832031 54.160156 -9.867188 56.234375 -12.328125 C 58.316406 -14.785156 59.925781 -17.328125 61.0625 -19.953125 C 62.207031 -22.578125 62.78125 -24.90625 62.78125 -26.9375 Z M 39.78125 -56.6875 C 44.613281 -59.144531 49.234375 -61.21875 53.640625 -62.90625 C 58.046875 -64.601562 61.6875 -65.875 64.5625 -66.71875 C 64.226562 -71.976562 62.445312 -75.859375 59.21875 -78.359375 C 56 -80.859375 52.273438 -82.109375 48.046875 -82.109375 C 44.054688 -82.109375 40.535156 -81.492188 37.484375 -80.265625 C 34.441406 -79.035156 31.878906 -77.507812 29.796875 -75.6875 C 27.722656 -73.863281 26.15625 -72.019531 25.09375 -70.15625 C 24.039062 -68.289062 23.515625 -66.722656 23.515625 -65.453125 C 23.515625 -64.859375 23.660156 -64.132812 23.953125 -63.28125 C 24.253906 -62.4375 24.953125 -61.847656 26.046875 -61.515625 C 30.960938 -60.078125 35.539062 -58.46875 39.78125 -56.6875 Z M 64.6875 -64.5625 C 61.632812 -63.632812 58.347656 -62.300781 54.828125 -60.5625 C 51.316406 -58.820312 47.867188 -56.765625 44.484375 -54.390625 C 50.492188 -51.253906 55.363281 -47.460938 59.09375 -43.015625 C 62.820312 -38.566406 64.6875 -33.207031 64.6875 -26.9375 Z M 64.6875 -64.5625 "/></g></g></g></g></g></svg>